<svg xmlns="http://www.w3.org/2000/svg" xmlns:xlink="http://www.w3.org/1999/xlink" viewBox="0 0 960 560"><defs><style>.cls-1{fill:url(#linear-gradient);filter:url(#luminosity-noclip);}.cls-2,.cls-6{fill:#662d91;}.cls-3{mask:url(#mask);}.cls-4{opacity:0.71;}.cls-5{fill:#b72467;}.cls-6{font-size:24px;font-family:Century;}.cls-7,.cls-8{fill:none;stroke-miterlimit:10;stroke-width:6px;}.cls-7{stroke:url(#Gold_Dust);}.cls-8{stroke:url(#linear-gradient-2);}</style><linearGradient id="linear-gradient" x1="466.56" y1="437.63" x2="466.56" y2="281.4" gradientUnits="userSpaceOnUse"><stop offset="0.54"/><stop offset="0.58" stop-color="#0e0e0e"/><stop offset="0.67" stop-color="#323232"/><stop offset="0.78" stop-color="#6d6d6d"/><stop offset="0.92" stop-color="#bdbdbd"/><stop offset="1" stop-color="#ebebeb"/></linearGradient><filter id="luminosity-noclip" x="331.11" y="281.4" width="270.89" height="156.22" filterUnits="userSpaceOnUse" color-interpolation-filters="sRGB"><feFlood flood-color="#fff" result="bg"/><feBlend in="SourceGraphic" in2="bg"/></filter><mask id="mask" x="331.11" y="281.4" width="270.89" height="156.22" maskUnits="userSpaceOnUse"><rect class="cls-1" x="331.11" y="281.4" width="270.89" height="156.22"/></mask><linearGradient id="Gold_Dust" x1="281.56" y1="268.16" x2="652.89" y2="268.16" gradientUnits="userSpaceOnUse"><stop offset="0" stop-color="#ff7300"/><stop offset="0.18" stop-color="#f97c01"/><stop offset="0.47" stop-color="#ea9602"/><stop offset="0.55" stop-color="#e59e03"/><stop offset="0.87" stop-color="#e5c500"/><stop offset="0.99" stop-color="#bf6f00"/></linearGradient><linearGradient id="linear-gradient-2" x1="269.67" y1="268.16" x2="664.77" y2="268.16" xlink:href="#Gold_Dust"/></defs><title>Artboard 1</title><g id="bridge_bot" data-name="bridge bot"><path class="cls-2" d="M593.22,258.26V209.53l-81-45h-90l-81,45v48.71h45.19a81,81,0,0,1,161.62,0Z"/><g class="cls-3"><g id="reflection" class="cls-4"><path class="cls-2" d="M548,282.52a81,81,0,0,1-161.61,0h-45.2v48.66l81,45h90l81-45V282.52Z"/><polygon class="cls-2" points="341.22 380.68 349.44 380.68 349.44 352.36 341.22 347.79 341.22 380.68"/><polygon class="cls-2" points="368.22 395.57 376.44 395.57 376.44 367.25 368.22 362.68 368.22 395.57"/><polygon class="cls-2" points="422.22 425.68 430.44 425.68 430.44 417.46 430.44 409.24 430.44 401.02 430.44 392.79 422.22 392.79 422.22 425.68"/><polygon class="cls-2" points="350.78 379.16 366.89 388.1 366.89 380.62 350.78 371.67 350.78 379.16"/><polygon class="cls-2" points="585 380.68 593.22 380.68 593.22 347.79 585 352.36 585 380.68"/><polygon class="cls-2" points="558 395.57 566.22 395.57 566.22 362.68 558 367.25 558 395.57"/><polygon class="cls-2" points="504 401.02 504 409.24 504 417.46 504 425.68 512.22 425.68 512.22 392.79 504 392.79 504 401.02"/><polygon class="cls-2" points="567.56 388.1 583.67 379.16 583.67 371.67 567.56 380.62 567.56 388.1"/><polygon class="cls-2" points="551.29 389.64 535.18 398.59 535.18 398.58 519.08 407.53 519.08 407.51 513.53 410.59 513.53 418.08 519.08 415.01 519.08 415.01 535.18 406.07 535.18 406.07 551.29 397.13 551.29 397.13 556.68 394.14 556.68 386.65 551.29 389.65 551.29 389.64"/><rect class="cls-2" x="431.76" y="411.93" width="70.93" height="7.49"/><polygon class="cls-2" points="377.76 394.14 420.91 418.07 420.91 410.57 377.76 386.65 377.76 394.14"/></g></g></g><g id="bridge_top" data-name="bridge top"><path class="cls-5" d="M349.44,201.86l-6.52,3.62a1.15,1.15,0,0,1-1.7-1v-29.8a1.16,1.16,0,0,1,1.15-1.15h5.92a1.15,1.15,0,0,1,1.15,1.16Z"/><path class="cls-5" d="M375.3,158.65h-5.92a1.15,1.15,0,0,0-1.16,1.15v29.78a1.15,1.15,0,0,0,1.71,1l6.51-3.61V159.8A1.14,1.14,0,0,0,375.3,158.65Z"/><path class="cls-5" d="M422.22,161.42V129.68a1.16,1.16,0,0,1,1.15-1.15h5.92a1.15,1.15,0,0,1,1.15,1.16v31.73Z"/><polygon class="cls-5" points="366.89 173.6 350.78 182.55 350.78 175.06 366.89 166.12 366.89 173.6"/><polyline class="cls-5" points="585 201.86 593.22 206.42 593.22 173.53 585 173.53"/><polyline class="cls-5" points="558 186.97 566.22 191.53 566.22 158.65 558 158.65"/><polyline class="cls-5" points="504 161.42 512.22 161.42 512.22 128.53 504 128.53 504 136.76 504 144.98 504 153.2"/><polygon class="cls-5" points="567.56 173.6 583.67 182.55 583.67 175.06 567.56 166.12 567.56 173.6"/><polyline class="cls-5" points="513.53 143.63 519.08 146.7 519.08 146.69 535.18 155.64 535.18 155.63 551.29 164.58 551.29 164.57 556.68 167.56 556.68 160.08 513.53 136.14 513.53 143.63 513.53 136.14 556.68 160.08 551.29 157.09 551.29 157.08 535.18 148.15 535.18 148.15 519.08 139.21 519.08 139.21 513.53 136.14"/><rect class="cls-5" x="431.76" y="134.8" width="70.93" height="7.49"/><polygon class="cls-5" points="420.91 136.15 420.91 143.65 377.76 167.56 377.76 160.08 420.91 136.15"/><g id="Layer_8" data-name="Layer 8"><rect class="cls-5" x="342.91" y="167.16" width="4.84" height="4.84" rx="0.89"/><rect class="cls-5" x="369.91" y="152.27" width="4.84" height="4.84" rx="0.89"/><rect class="cls-5" x="423.91" y="122.56" width="4.84" height="4.84" rx="0.89"/><rect class="cls-5" x="505.69" y="122.56" width="4.84" height="4.84" rx="0.89"/><rect class="cls-5" x="559.69" y="152.27" width="4.84" height="4.84" rx="0.89"/><rect class="cls-5" x="586.69" y="167.16" width="4.84" height="4.84" rx="0.89"/></g></g><g id="separator"><rect class="cls-5" x="296.22" y="265.68" width="342" height="9.41"/></g><g id="curve_text" data-name="curve text"><text class="cls-6" transform="matrix(0.43, -0.9, 0.9, 0.43, 413.7, 244.74)">E</text><text class="cls-6" transform="translate(421.08 229.49) rotate(-49.01)">Z</text><text class="cls-6" transform="matrix(0.78, -0.62, 0.62, 0.78, 430.86, 218.77)"> </text><text class="cls-6" transform="matrix(0.89, -0.45, 0.45, 0.89, 435.59, 214.28)">E</text><text class="cls-6" transform="translate(450.64 206.89) rotate(-11.59)">d</text><text class="cls-6" transform="matrix(1, 0.02, -0.02, 1, 462.98, 204.18)">u</text><text class="cls-6" transform="translate(476.74 204.62) rotate(13.18)">c</text><text class="cls-6" transform="translate(486.74 206.78) rotate(24.85)">a</text><text class="cls-6" transform="translate(497.75 211.97) rotate(35.07)">t</text><text class="cls-6" transform="matrix(0.73, 0.69, -0.69, 0.73, 505.18, 217.24)">i</text><text class="cls-6" transform="matrix(0.61, 0.79, -0.79, 0.61, 510.31, 221.75)">o</text><text class="cls-6" transform="matrix(0.43, 0.9, -0.9, 0.43, 517.26, 230.34)">n</text></g><g id="outer_rim" data-name="outer rim"><circle class="cls-7" cx="467.22" cy="268.16" r="182.67"/><circle class="cls-8" cx="467.22" cy="268.16" r="194.55"/></g></svg>